<svg xmlns="http://www.w3.org/2000/svg" viewBox="0 0 128 128" role="img" aria-labelledby="title desc">
  <title id="title">PickUpNews Mark</title>
  <desc id="desc">Rounded square icon with stylized P and N letterforms</desc>
  <defs>
    <linearGradient id="bgGrad" x1="0" y1="0" x2="1" y2="1">
      <stop offset="0%" stop-color="#0f766e" />
      <stop offset="55%" stop-color="#0284c7" />
      <stop offset="100%" stop-color="#0f172a" />
    </linearGradient>
    <linearGradient id="markGrad" x1="0" y1="0" x2="1" y2="1">
      <stop offset="0%" stop-color="#fbbf24" />
      <stop offset="100%" stop-color="#fde68a" />
    </linearGradient>
  </defs>
  <rect x="8" y="8" width="112" height="112" rx="26" fill="url(#bgGrad)" />
  <path d="M38 32h20c18 0 29 10 29 25 0 16-12 26-30 26H51v13H38V32Zm13 12v27h6c11 0 17-5 17-14 0-9-6-13-17-13h-6Z" fill="white"/>
  <path d="M68 49h11l16 23V49h12v47H95L80 74v22H68V49Z" fill="url(#markGrad)"/>
</svg>
